<?xml version="1.0" encoding="iso-8859-1"?>
<!-- Generator: Adobe Illustrator 18.0.0, SVG Export Plug-In . SVG Version: 6.00 Build 0)  -->
<!DOCTYPE svg PUBLIC "-//W3C//DTD SVG 1.1//EN" "http://www.w3.org/Graphics/SVG/1.1/DTD/svg11.dtd">
<svg version="1.1" id="Capa_1" xmlns="http://www.w3.org/2000/svg" xmlns:xlink="http://www.w3.org/1999/xlink" x="0px" y="0px"
	 viewBox="0 0 394.686 394.686" style="enable-background:new 0 0 394.686 394.686;" xml:space="preserve">
<path d="M378.511,106.792c0-28.891-19.099-55.906-53.776-76.067C290.655,10.912,245.415,0,197.35,0
	c-48.06,0-93.295,10.912-127.374,30.726c-34.677,20.162-53.774,47.176-53.774,76.067c0,0.96-0.027,4.343-0.027,5.091
	c0,6.496,2.53,12.604,7.125,17.198c23.455,23.456,27.697,125.176,23.179,186.531l-0.687,9.118
	c-0.288,3.974,1.101,7.924,3.811,10.838c2.705,2.908,6.534,4.576,10.508,4.576h1.201l5.979,54.542h29.363v-54.542h201.367v54.542
	h29.363l5.979-54.542h1.198c3.982,0,7.819-1.673,10.526-4.59c2.706-2.915,4.088-6.862,3.792-10.828l-0.672-9.108
	c-4.52-61.357-0.282-163.075,23.165-186.536c4.594-4.594,7.124-10.702,7.124-17.198
	C378.498,111.267,378.511,107.959,378.511,106.792z M197.35,7c88.083,0,161.091,37.663,172.578,86.358
	c-4.394-3.748-9.914-5.797-15.752-5.797c-6.496,0-12.604,2.53-17.198,7.124c-11.354,11.355-19.952,27.882-26.285,50.524
	c-4,14.286-7.083,31.25-9.192,50.522h-46.054c0.842-7.942,3.08-27.397,6.951-49.994c6.647-38.81,15.053-69.105,24.306-87.61
	c0.864-1.729,0.163-3.832-1.565-4.696c-1.731-0.865-3.832-0.163-4.696,1.565c-20.952,41.906-30.254,123.389-32.04,140.735h-47.545
	V39.563c0-1.933-1.567-3.5-3.5-3.5s-3.5,1.567-3.5,3.5v156.169h-47.544c-1.786-17.346-11.087-98.829-32.04-140.735
	c-0.863-1.728-2.964-2.43-4.696-1.565c-1.729,0.864-2.43,2.967-1.565,4.696c9.249,18.497,17.65,48.774,24.297,87.559
	c3.875,22.608,6.116,42.095,6.959,50.045h-46.09c-2.109-19.273-5.188-36.237-9.183-50.523c-6.348-22.649-14.95-39.175-26.299-50.524
	c-4.594-4.594-10.701-7.124-17.198-7.124c-5.815,0-11.316,2.033-15.701,5.754C36.315,44.641,109.301,7,197.35,7z M300.84,247.164
	c0,1.928-1.568,3.497-3.497,3.497H97.37c-1.929,0-3.497-1.568-3.497-3.497c0,0,0.257-41.85,0.23-42.149
	c0.496-1.329,1.767-2.283,3.267-2.283h199.974c1.466,0,2.72,0.909,3.239,2.191C300.555,205.217,300.84,247.164,300.84,247.164z
	 M60.354,333.144c-1.981,0-3.939-0.688-5.359-2.07c-1.59-1.548-2.381-3.64-2.222-5.828l0.686-9.114
	c2.594-35.214,2.162-76.33-1.152-109.984c-2.887-29.3-9.395-67.29-24.013-81.972c-1.758-1.765-3.252-3.806-4.067-6.16
	c-2.733-7.898-0.005-16.001,6.628-20.54c1.837-1.257,3.926-2.138,6.11-2.568c5.902-1.161,11.686,0.631,15.782,4.726
	c10.33,10.331,18.576,26.299,24.507,47.46c3.832,13.703,6.805,29.986,8.868,48.511c0.584,5.245,0.867,10.527,0.842,15.805
	c-0.056,12.075-0.09,35.753-0.09,35.753c0,2.684,1.021,5.128,2.684,6.985c0.543,35.66-1.468,63.353-1.552,64.501l-1.254,14.492
	H60.543l0,0.002H60.354z M73.566,387.686l-5.214-47.542h21.302v47.542H73.566z M93.776,333.142l1.206-13.932
	c0.086-1.163,1.987-27.335,1.621-61.55h201.457c-0.357,34.204,1.545,60.39,1.635,61.596l1.212,13.885H93.776z M321.109,387.686
	h-16.088v-47.542h21.302L321.109,387.686z M342.378,206.148c-3.313,33.659-3.744,74.774-1.15,109.985l0.672,9.111
	c0.163,2.192-0.626,4.279-2.214,5.826c-1.421,1.384-3.383,2.074-5.367,2.074h-0.187l0-0.002h-26.198l-1.262-14.448
	c-0.088-1.19-2.098-28.866-1.568-64.486c1.695-1.865,2.737-4.332,2.737-7.044c0,0-0.037-23.743-0.102-35.865
	c-0.027-5.049,0.202-10.099,0.754-15.118c2.066-18.761,5.063-35.24,8.941-49.085c5.804-20.752,13.844-36.512,23.902-46.862
	c3.132-3.222,7.278-5.371,11.763-5.641c6.152-0.37,11.93,2.439,15.498,7.665c1.245,1.823,2.117,3.894,2.547,6.059
	c1.175,5.913-0.616,11.712-4.72,15.816C351.783,138.782,345.266,176.819,342.378,206.148z"/>
<g>
</g>
<g>
</g>
<g>
</g>
<g>
</g>
<g>
</g>
<g>
</g>
<g>
</g>
<g>
</g>
<g>
</g>
<g>
</g>
<g>
</g>
<g>
</g>
<g>
</g>
<g>
</g>
<g>
</g>
</svg>
