<?xml version='1.0' encoding='iso-8859-1'?>
<!DOCTYPE svg PUBLIC '-//W3C//DTD SVG 1.1//EN' 'http://www.w3.org/Graphics/SVG/1.1/DTD/svg11.dtd'>
<svg version="1.1" xmlns="http://www.w3.org/2000/svg" viewBox="0 0 315 315" xmlns:xlink="http://www.w3.org/1999/xlink" enable-background="new 0 0 315 315">
  <path d="M307.513,128.961h-25.939V7c0-3.866-3.134-7-7-7H40.427c-3.866,0-7,3.134-7,7v121.961H7.487c-3.866,0-7,3.134-7,7V281.28  c0,3.866,3.134,7,7,7h25.939V308c0,3.866,3.134,7,7,7c3.866,0,7-3.134,7-7v-19.72h220.146V308c0,3.866,3.134,7,7,7  c3.866,0,7-3.134,7-7v-19.72h25.939c3.866,0,7-3.134,7-7V135.961C314.513,132.095,311.379,128.961,307.513,128.961z M47.427,14  h220.146v114.961h-25.938c-3.866,0-7,3.134-7,7v71.67H80.364v-71.67c0-3.866-3.134-7-7-7H47.427V14z M300.513,274.28H14.487V142.961  h51.877v71.67c0,3.866,3.134,7,7,7h168.271c3.866,0,7-3.134,7-7v-71.67h51.878V274.28z"/>
</svg>
