<?xml version="1.0" encoding="iso-8859-1"?>
<!-- Generator: Adobe Illustrator 19.0.0, SVG Export Plug-In . SVG Version: 6.00 Build 0)  -->
<svg version="1.1" id="Layer_1" xmlns="http://www.w3.org/2000/svg" xmlns:xlink="http://www.w3.org/1999/xlink" x="0px" y="0px"
	 viewBox="0 0 512.8 512.8" style="enable-background:new 0 0 512.8 512.8;" xml:space="preserve">
<path style="fill:#9F633C;" d="M88.4,304.4V69.6c0-36.8,30.4-65.2,67.2-65.2h201.6c36.8,0,67.2,28.4,67.2,65.2v234.8"/>
<g>
	<path style="fill:#140500;" d="M424.4,308.4c-2.4,0-4-1.6-4-4V69.6c0-34.4-27.6-61.2-63.2-61.2H155.6c-35.6,0-63.2,26.8-63.2,61.2
		v234.8c0,2.4-1.6,4-4,4s-4-1.6-4-4V69.6c0-38.8,31.2-69.2,71.2-69.2h201.6c40,0,71.2,30.4,71.2,69.2v234.8
		C428.4,306.8,426.8,308.4,424.4,308.4z"/>
	<path style="fill:#140500;" d="M404.4,308.4h-300c-2.4,0-4-1.6-4-4s1.6-4,4-4h300c2.4,0,4,1.6,4,4S406.8,308.4,404.4,308.4z"/>
	<path style="fill:#140500;" d="M257.6,170.8c-10.8,0-19.6-8.8-19.6-19.6s8.8-19.6,19.6-19.6c2.4,0,4,1.6,4,4s-1.6,4-4,4
		c-6.4,0-11.6,5.2-11.6,11.6s5.2,11.6,11.6,11.6c6.4,0,11.6-5.2,11.6-11.6c0-2.4,1.6-4,4-4s4,1.6,4,4
		C277.2,162,268.4,170.8,257.6,170.8z"/>
	<path style="fill:#140500;" d="M293.6,184c-0.8,0-1.6-0.4-2.4-0.8l-12-9.6c-1.6-1.2-2-4-0.8-5.6s4-2,5.6-0.8l12,9.6
		c1.6,1.2,2,4,0.8,5.6C296,183.6,294.8,184,293.6,184z"/>
	<path style="fill:#140500;" d="M221.6,184c-1.2,0-2.4-0.4-3.2-1.6c-1.2-1.6-1.2-4.4,0.8-5.6l12-9.6c1.6-1.2,4.4-1.2,5.6,0.8
		c1.2,1.6,1.2,4.4-0.8,5.6l-12,9.6C223.2,184,222.4,184,221.6,184z"/>
	<path style="fill:#140500;" d="M281.6,137.2c-1.2,0-2.4-0.4-3.2-1.6c-1.2-1.6-1.2-4.4,0.8-5.6l12-9.6c1.6-1.2,4.4-1.2,5.6,0.8
		c1.2,1.6,1.2,4.4-0.8,5.6l-12,9.6C283.6,137.2,282.8,137.2,281.6,137.2z"/>
	<path style="fill:#140500;" d="M233.6,137.2c-0.8,0-1.6-0.4-2.4-0.8l-12-9.6c-1.6-1.2-2-4-0.8-5.6s4-2,5.6-0.8l12,9.6
		c1.6,1.2,2,4,0.8,5.6C236,136.8,234.8,137.2,233.6,137.2z"/>
</g>
<rect x="88.4" y="496.4" style="fill:#554542;" width="16" height="12"/>
<path style="fill:#140500;" d="M104.4,512.4h-16c-2.4,0-4-1.6-4-4v-12c0-2.4,1.6-4,4-4h16c2.4,0,4,1.6,4,4v12
	C108.4,510.8,106.8,512.4,104.4,512.4z M92.4,504.4h8v-4h-8V504.4z"/>
<rect x="404.4" y="496.4" style="fill:#554542;" width="20" height="12"/>
<path style="fill:#140500;" d="M424.4,512.4h-20c-2.4,0-4-1.6-4-4v-12c0-2.4,1.6-4,4-4h20c2.4,0,4,1.6,4,4v12
	C428.4,510.8,426.8,512.4,424.4,512.4z M408.4,504.4h12v-4h-12V504.4z"/>
<path style="fill:#895129;" d="M104.4,250.4v246H82c-14.8,0-29.6-12.4-29.6-27.2V302L104.4,250.4z"/>
<path style="fill:#140500;" d="M104.4,500.4H82c-17.6,0-33.6-14.8-33.6-31.2V302c0-1.2,0.4-2,1.2-2.8l52-51.6
	c1.2-1.2,2.8-1.6,4.4-0.8c1.6,0.8,2.4,2,2.4,3.6v246C108.4,498.8,106.8,500.4,104.4,500.4z M56.4,303.6v165.6
	c0,12,12.4,23.2,25.6,23.2h18.4V260L56.4,303.6z"/>
<path style="fill:#895129;" d="M405.6,249.2v247.2h27.6c14.8,0,27.2-12.4,27.2-27.2V302L405.6,249.2z"/>
<path style="fill:#140500;" d="M433.2,500.4h-27.6c-1.2,0-2-0.4-2.8-1.2s-1.2-1.6-1.2-2.8V249.2c0-1.6,0.8-3.2,2.4-3.6
	c1.6-0.8,3.2-0.4,4.4,0.8l54.8,52.8c0.8,0.8,1.2,1.6,1.2,2.8v167.2C464.4,486,450,500.4,433.2,500.4z M409.6,492.4h23.6
	c12.4,0,23.2-10.8,23.2-23.2V303.6l-46.8-45.2V492.4z"/>
<circle style="fill:#BD8150;" cx="55.6" cy="250.4" r="51.6"/>
<path style="fill:#140500;" d="M55.6,306C24.8,306,0,280.8,0,250.4s25.2-55.6,55.6-55.6s55.6,25.2,55.6,55.6S86,306,55.6,306z
	 M55.6,202.4C29.2,202.4,8,224,8,250c0,26.4,21.6,47.6,47.6,47.6s47.6-21.6,47.6-47.6S81.6,202.4,55.6,202.4z"/>
<circle style="fill:#BD8150;" cx="457.2" cy="250.4" r="51.6"/>
<g>
	<path style="fill:#140500;" d="M457.2,306c-30.8,0-55.6-25.2-55.6-55.6s25.2-55.6,55.6-55.6s55.6,25.2,55.6,55.6S488,306,457.2,306
		z M457.2,202.4c-26.4,0-47.6,21.6-47.6,47.6c0,26.4,21.6,47.6,47.6,47.6c26.4,0,47.6-21.6,47.6-47.6
		C505.2,224,483.6,202.4,457.2,202.4z"/>
	<path style="fill:#140500;" d="M55.6,285.2c-19.2,0-35.2-15.6-35.2-35.2c0-19.2,15.6-35.2,35.2-35.2c2.4,0,4,1.6,4,4s-1.6,4-4,4
		c-14.8,0-27.2,12-27.2,27.2s12,27.2,27.2,27.2c14.8,0,27.2-12,27.2-27.2c0-2.4,1.6-4,4-4s4,1.6,4,4
		C90.4,269.6,74.8,285.2,55.6,285.2z"/>
	<path style="fill:#140500;" d="M457.2,285.2c-19.2,0-35.2-15.6-35.2-35.2c0-19.2,15.6-35.2,35.2-35.2c2.4,0,4,1.6,4,4s-1.6,4-4,4
		c-14.8,0-27.2,12-27.2,27.2s12,27.2,27.2,27.2c14.8,0,27.2-12,27.2-27.2c0-2.4,1.6-4,4-4s4,1.6,4,4
		C492.4,269.6,476.8,285.2,457.2,285.2z"/>
</g>
<rect x="104.4" y="304.4" style="fill:#9F633C;" width="300" height="192"/>
<g>
	<path style="fill:#140500;" d="M404.4,500.4h-300c-2.4,0-4-1.6-4-4v-192c0-2.4,1.6-4,4-4h300c2.4,0,4,1.6,4,4v192
		C408.4,498.8,406.8,500.4,404.4,500.4z M108.4,492.4h292v-184h-292V492.4z"/>
	<path style="fill:#140500;" d="M404.4,360.4h-36c-2.4,0-4-1.6-4-4s1.6-4,4-4h36c2.4,0,4,1.6,4,4S406.8,360.4,404.4,360.4z"/>
	<path style="fill:#140500;" d="M328.4,360.4h-224c-2.4,0-4-1.6-4-4s1.6-4,4-4h224c2.4,0,4,1.6,4,4S330.8,360.4,328.4,360.4z"/>
</g>
<g>
	<circle style="fill:#D6BA9B;" cx="55.6" cy="250.4" r="31.2"/>
	<circle style="fill:#D6BA9B;" cx="457.2" cy="250.4" r="31.2"/>
	<circle style="fill:#D6BA9B;" cx="257.6" cy="151.2" r="12.4"/>
</g>
<g>
	<path style="fill:#140500;" d="M55.6,285.2c-19.2,0-35.2-15.6-35.2-35.2c0-19.2,15.6-35.2,35.2-35.2c2.4,0,4,1.6,4,4s-1.6,4-4,4
		c-14.8,0-27.2,12-27.2,27.2s12,27.2,27.2,27.2s27.2-12,27.2-27.2c0-2.4,1.6-4,4-4s4,1.6,4,4C90.4,269.6,74.8,285.2,55.6,285.2z"/>
	<path style="fill:#140500;" d="M457.2,285.2c-19.2,0-35.2-15.6-35.2-35.2c0-19.2,15.6-35.2,35.2-35.2c2.4,0,4,1.6,4,4s-1.6,4-4,4
		c-14.8,0-27.2,12-27.2,27.2s12,27.2,27.2,27.2s27.2-12,27.2-27.2c0-2.4,1.6-4,4-4s4,1.6,4,4C492.4,269.6,476.8,285.2,457.2,285.2z"
		/>
</g>
<g>
</g>
<g>
</g>
<g>
</g>
<g>
</g>
<g>
</g>
<g>
</g>
<g>
</g>
<g>
</g>
<g>
</g>
<g>
</g>
<g>
</g>
<g>
</g>
<g>
</g>
<g>
</g>
<g>
</g>
</svg>
