<?xml version="1.0" encoding="utf-8"?>
<svg viewBox="0 0 500 500" xmlns="http://www.w3.org/2000/svg">
  <circle style="fill:#BD8150;" cx="457.2" cy="250.4" r="51.6" transform="matrix(1, 0, 0, 1, -15.789667, 24.703274)"/>
  <g transform="matrix(1, 0, 0, 1, -15.789667, 24.703274)">
    <path style="fill:#140500;" d="M457.2,306c-30.8,0-55.6-25.2-55.6-55.6s25.2-55.6,55.6-55.6s55.6,25.2,55.6,55.6S488,306,457.2,306 z M457.2,202.4c-26.4,0-47.6,21.6-47.6,47.6c0,26.4,21.6,47.6,47.6,47.6c26.4,0,47.6-21.6,47.6-47.6 C505.2,224,483.6,202.4,457.2,202.4z"/>
    <path style="fill:#140500;" d="M457.2,285.2c-19.2,0-35.2-15.6-35.2-35.2c0-19.2,15.6-35.2,35.2-35.2c2.4,0,4,1.6,4,4s-1.6,4-4,4 c-14.8,0-27.2,12-27.2,27.2s12,27.2,27.2,27.2c14.8,0,27.2-12,27.2-27.2c0-2.4,1.6-4,4-4s4,1.6,4,4 C492.4,269.6,476.8,285.2,457.2,285.2z"/>
  </g>
  <g transform="matrix(1, 0, 0, 1, -15.789667, 24.703274)"/>
  <g transform="matrix(1, 0, 0, 1, -15.789667, 24.703274)"/>
  <g transform="matrix(1, 0, 0, 1, -15.789667, 24.703274)"/>
  <g transform="matrix(1, 0, 0, 1, -15.789667, 24.703274)"/>
  <g transform="matrix(1, 0, 0, 1, -15.789667, 24.703274)"/>
  <g transform="matrix(1, 0, 0, 1, -15.789667, 24.703274)"/>
  <g transform="matrix(1, 0, 0, 1, -15.789667, 24.703274)"/>
  <g transform="matrix(1, 0, 0, 1, -15.789667, 24.703274)"/>
  <g transform="matrix(1, 0, 0, 1, -15.789667, 24.703274)"/>
  <g transform="matrix(1, 0, 0, 1, -15.789667, 24.703274)"/>
  <g transform="matrix(1, 0, 0, 1, -15.789667, 24.703274)"/>
  <g transform="matrix(1, 0, 0, 1, -15.789667, 24.703274)"/>
  <g transform="matrix(1, 0, 0, 1, -15.789667, 24.703274)"/>
  <g transform="matrix(1, 0, 0, 1, -15.789667, 24.703274)"/>
  <g transform="matrix(1, 0, 0, 1, -15.789667, 24.703274)"/>
</svg>