<?xml version="1.0" encoding="iso-8859-1"?>
<!-- Generator: Adobe Illustrator 19.0.0, SVG Export Plug-In . SVG Version: 6.00 Build 0)  -->
<svg version="1.1" id="Layer_1" xmlns="http://www.w3.org/2000/svg" xmlns:xlink="http://www.w3.org/1999/xlink" x="0px" y="0px"
	 viewBox="0 0 384 384" style="enable-background:new 0 0 384 384;" xml:space="preserve">
<rect x="36" y="340" style="fill:#554542;" width="32" height="20"/>
<path style="fill:#140500;" d="M68,364H36c-2.4,0-4-1.6-4-4v-20c0-2.4,1.6-4,4-4h32c2.4,0,4,1.6,4,4v20C72,362.4,70.4,364,68,364z
	 M40,356h24v-12H40V356z"/>
<rect x="316" y="340" style="fill:#554542;" width="36" height="20"/>
<path style="fill:#140500;" d="M352,364h-36c-2.4,0-4-1.6-4-4v-20c0-2.4,1.6-4,4-4h36c2.4,0,4,1.6,4,4v20
	C356,362.4,354.4,364,352,364z M320,356h28v-12h-28V356z"/>
<polygon style="fill:#895129;" points="380,340 332.8,340 50.4,340 4,340 4,24 50.4,24 332.8,24 380,24 "/>
<path style="fill:#140500;" d="M380,344H4c-2.4,0-4-1.6-4-4V24c0-2.4,1.6-4,4-4h376c2.4,0,4,1.6,4,4v316
	C384,342.4,382.4,344,380,344z M8,336h368V28H8V336z"/>
<polyline style="fill:#9F633C;" points="352,52 352,168 32,168 32,52 288,52 "/>
<path style="fill:#140500;" d="M352,172H32c-2.4,0-4-1.6-4-4V52c0-2.4,1.6-4,4-4h256c2.4,0,4,1.6,4,4s-1.6,4-4,4H36v108h312V52
	c0-2.4,1.6-4,4-4s4,1.6,4,4v116C356,170.4,354.4,172,352,172z"/>
<polyline style="fill:#9F633C;" points="352,196 352,312 32,312 32,196 288,196 "/>
<g>
	<path style="fill:#140500;" d="M352,316H32c-2.4,0-4-1.6-4-4V196c0-2.4,1.6-4,4-4h256c2.4,0,4,1.6,4,4s-1.6,4-4,4H36v108h312V196
		c0-2.4,1.6-4,4-4s4,1.6,4,4v116C356,314.4,354.4,316,352,316z"/>
	<path style="fill:#140500;" d="M224,116h-68c-2.4,0-4-1.6-4-4s1.6-4,4-4h68c2.4,0,4,1.6,4,4S226.4,116,224,116z"/>
	<path style="fill:#140500;" d="M224,260h-68c-2.4,0-4-1.6-4-4s1.6-4,4-4h68c2.4,0,4,1.6,4,4S226.4,260,224,260z"/>
</g>
<g>
</g>
<g>
</g>
<g>
</g>
<g>
</g>
<g>
</g>
<g>
</g>
<g>
</g>
<g>
</g>
<g>
</g>
<g>
</g>
<g>
</g>
<g>
</g>
<g>
</g>
<g>
</g>
<g>
</g>
</svg>
