<?xml version="1.0" encoding="iso-8859-1"?>
<!-- Generator: Adobe Illustrator 18.0.0, SVG Export Plug-In . SVG Version: 6.00 Build 0)  -->
<!DOCTYPE svg PUBLIC "-//W3C//DTD SVG 1.1//EN" "http://www.w3.org/Graphics/SVG/1.1/DTD/svg11.dtd">
<svg version="1.1" id="Capa_1" xmlns="http://www.w3.org/2000/svg" xmlns:xlink="http://www.w3.org/1999/xlink" x="0px" y="0px"
	 viewBox="0 0 455.239 455.239" style="enable-background:new 0 0 455.239 455.239;" xml:space="preserve">
<path d="M330.222,153.631L350.007,0h-20.325l-24.765,192.285c-1.954,15.181-14.971,26.628-30.276,26.628H132.733
	c-10.491,0-19.031,8.516-19.07,18.999l-8.431,217.327h20.265l7.128-172.884c0.652-15.841,13.583-28.249,29.438-28.249h113.838
	c14.606,0,27.15,10.908,29.178,25.374l24.637,175.759h20.269l-20.16-163.974C324.209,245.583,324.343,199.276,330.222,153.631z
	 M335.804,448.239l-23.793-169.73c-2.509-17.902-18.032-31.402-36.109-31.402H162.063c-19.622,0-35.625,15.356-36.433,34.961
	l-6.851,166.172h-6.271l8.15-210.12l0.003-0.136c0-6.655,5.415-12.07,12.07-12.07h141.907c18.815,0,34.816-14.072,37.22-32.733
	L335.838,7h6.21l-18.77,145.736c-5.953,46.226-6.089,93.121-0.401,139.383l19.193,156.12H335.804z"/>
<g>
</g>
<g>
</g>
<g>
</g>
<g>
</g>
<g>
</g>
<g>
</g>
<g>
</g>
<g>
</g>
<g>
</g>
<g>
</g>
<g>
</g>
<g>
</g>
<g>
</g>
<g>
</g>
<g>
</g>
</svg>
