<?xml version="1.0" standalone="no"?>
<!DOCTYPE svg PUBLIC "-//W3C//DTD SVG 20010904//EN"
 "http://www.w3.org/TR/2001/REC-SVG-20010904/DTD/svg10.dtd">
<svg version="1.0" xmlns="http://www.w3.org/2000/svg"
 width="726.000000pt" height="1105.000000pt" viewBox="0 0 726.000000 1105.000000"
 preserveAspectRatio="xMidYMid meet">

<g transform="translate(0.000000,1105.000000) scale(0.100000,-0.100000)"
fill="#000000" stroke="none">
<path d="M3100 10874 c-163 -31 -225 -49 -297 -84 -46 -22 -86 -40 -89 -40 -4
0 -25 -14 -48 -30 -23 -17 -79 -58 -126 -92 -47 -34 -120 -95 -163 -137 -75
-74 -81 -84 -196 -311 -84 -167 -132 -276 -165 -377 l-47 -142 3 -168 3 -168
37 -75 c20 -41 55 -98 76 -126 42 -54 79 -133 106 -224 9 -33 32 -75 57 -105
22 -27 52 -71 65 -96 15 -31 49 -68 98 -108 71 -59 74 -62 66 -93 -22 -94 -55
-198 -73 -233 -44 -89 -123 -208 -142 -216 -11 -4 -56 -23 -100 -42 -44 -19
-105 -40 -135 -47 -75 -18 -184 -61 -315 -124 -60 -30 -179 -77 -263 -104
-132 -43 -166 -59 -253 -118 -143 -96 -227 -185 -289 -305 -27 -53 -56 -123
-65 -155 -19 -74 -20 -221 -1 -271 8 -21 20 -61 26 -90 7 -29 27 -78 46 -109
19 -31 34 -59 34 -62 0 -3 -24 -37 -53 -76 -164 -217 -226 -334 -296 -556 -64
-199 -80 -279 -91 -456 -5 -79 -11 -148 -14 -152 -3 -4 -14 -100 -25 -213 -39
-384 -58 -500 -133 -839 -10 -47 -23 -146 -28 -220 -8 -124 -27 -262 -50 -364
-5 -22 -14 -77 -19 -121 -6 -44 -18 -123 -26 -175 -28 -174 -54 -354 -70 -473
-8 -65 -22 -146 -31 -180 -11 -46 -17 -136 -21 -343 -5 -298 3 -402 36 -476
200 -449 252 -541 356 -621 238 -183 308 -230 464 -309 l105 -53 16 -70 c17
-73 56 -177 96 -257 23 -45 69 -89 149 -140 39 -24 56 -49 157 -220 47 -81
132 -161 217 -207 47 -25 66 -42 77 -67 l14 -34 2613 2 2612 3 3 140 c3 182
-12 440 -32 535 -9 41 -19 123 -23 182 -6 108 -6 108 27 170 18 35 39 71 48
80 8 9 25 45 37 80 13 35 35 92 48 128 14 36 30 99 37 140 6 41 16 97 21 123
14 77 11 150 -12 218 -11 35 -27 102 -35 149 -13 78 -12 89 5 145 47 149 56
333 30 595 -11 106 -15 121 -53 188 -22 41 -65 106 -93 145 -50 68 -53 75 -53
132 0 96 -27 295 -48 355 -25 72 -66 175 -109 277 -53 127 -62 173 -52 261 15
136 13 301 -6 371 -18 71 -46 131 -68 150 -13 10 -14 41 -10 194 5 144 2 202
-11 277 -9 52 -24 140 -32 195 -12 82 -67 295 -104 405 -5 14 -11 46 -14 72
-3 26 -41 143 -85 260 -43 117 -87 238 -96 268 -23 69 -105 269 -152 369 -186
397 -244 594 -197 667 10 15 20 61 25 117 8 83 7 95 -12 135 -12 24 -51 75
-88 113 -36 38 -91 95 -121 127 -45 47 -80 70 -195 128 -77 39 -152 78 -165
87 -14 8 -38 19 -53 23 -27 6 -100 50 -217 131 -30 21 -75 49 -100 63 -57 32
-139 93 -261 195 -53 44 -143 108 -200 143 -90 54 -109 70 -143 122 -59 92
-61 115 -19 224 19 50 50 150 68 222 33 128 33 135 37 390 3 232 1 263 -14
286 -9 14 -28 58 -42 98 -14 39 -34 86 -45 103 -10 18 -22 55 -26 82 -16 114
-36 180 -65 210 -15 17 -39 53 -53 80 -14 28 -40 64 -57 80 -18 17 -56 62 -85
100 -29 39 -72 89 -96 112 -59 56 -172 130 -212 138 -17 4 -53 18 -79 31 -85
43 -166 55 -408 59 -124 2 -236 1 -250 -1z"/>
</g>
</svg>
