<?xml version="1.0" encoding="iso-8859-1"?>
<!-- Generator: Adobe Illustrator 19.0.0, SVG Export Plug-In . SVG Version: 6.00 Build 0)  -->
<svg version="1.1" id="Layer_1" xmlns="http://www.w3.org/2000/svg" xmlns:xlink="http://www.w3.org/1999/xlink" x="0px" y="0px"
	 viewBox="0 0 512 512" style="enable-background:new 0 0 512 512;" xml:space="preserve">
<polyline style="fill:#E0E0E0;" points="264,188 264,484 244,484 244,188 "/>
<path style="fill:#140500;" d="M264,488h-20c-2.4,0-4-1.6-4-4V188c0-2.4,1.6-4,4-4s4,1.6,4,4v292h12V188c0-2.4,1.6-4,4-4s4,1.6,4,4
	v296C268,486.4,266.4,488,264,488z"/>
<path style="fill:#BDBDBD;" d="M348,508c0-12-10-24-22.8-24H186.8c-12.4,0-22.8,12-22.8,24H348z"/>
<path style="fill:#140500;" d="M348,512H164c-2.4,0-4-1.6-4-4c0-14.8,12.4-28,26.8-28h138.4c14.4,0,26.8,13.2,26.8,28
	C352,510.4,350.4,512,348,512z M168.8,504h174.8c-2-8-9.2-16-18.4-16H186.8C177.6,488,170.4,496,168.8,504z"/>
<polygon style="fill:#FFB540;" points="357.6,184 154.4,184 202.4,4 309.6,4 "/>
<g>
	<path style="fill:#140500;" d="M357.6,188H154.4c-1.2,0-2.4-0.4-3.2-1.6c-0.8-0.8-1.2-2.4-0.8-3.6l48-180c0.4-1.6,2-2.8,4-2.8
		h107.2c2,0,3.2,1.2,4,2.8l48,180c0.4,1.2,0,2.4-0.8,3.6S358.8,188,357.6,188z M159.6,180h192.8l-46-172H205.6L159.6,180z"/>
	<path style="fill:#140500;" d="M280,168H160c-2.4,0-4-1.6-4-4s1.6-4,4-4h120c2.4,0,4,1.6,4,4S282.4,168,280,168z"/>
	<path style="fill:#140500;" d="M316,168h-16c-2.4,0-4-1.6-4-4s1.6-4,4-4h16c2.4,0,4,1.6,4,4S318.4,168,316,168z"/>
	<path style="fill:#140500;" d="M264,116h-88c-2.4,0-4-1.6-4-4s1.6-4,4-4h88c2.4,0,4,1.6,4,4S266.4,116,264,116z"/>
	<path style="fill:#140500;" d="M300,116h-16c-2.4,0-4-1.6-4-4s1.6-4,4-4h16c2.4,0,4,1.6,4,4S302.4,116,300,116z"/>
</g>
<g>
</g>
<g>
</g>
<g>
</g>
<g>
</g>
<g>
</g>
<g>
</g>
<g>
</g>
<g>
</g>
<g>
</g>
<g>
</g>
<g>
</g>
<g>
</g>
<g>
</g>
<g>
</g>
<g>
</g>
</svg>
